<svg width="38" height="38" viewBox="0 0 38 38" fill="none" xmlns="http://www.w3.org/2000/svg">
<rect width="38" height="38" rx="8" fill="url(#paint0_linear_4111_12)"/>
<path d="M32.37 17.1C32.37 19.14 31.9393 21.01 31.078 22.71C30.2167 24.3873 29.004 25.7927 27.44 26.926C25.8987 28.0593 24.1193 28.8073 22.102 29.17V33.59H16.56V29.17C14.5653 28.8073 12.786 28.0593 11.222 26.926C9.68067 25.7927 8.47933 24.376 7.618 22.676C6.75667 20.976 6.326 19.1173 6.326 17.1C6.326 14.7653 6.88133 12.6687 7.992 10.81C9.12533 8.92867 10.678 7.45533 12.65 6.39C14.6447 5.32467 16.8773 4.792 19.348 4.792C21.8187 4.792 24.04 5.32467 26.012 6.39C27.984 7.45533 29.5367 8.92867 30.67 10.81C31.8033 12.6687 32.37 14.7653 32.37 17.1ZM21.864 24.342C23.3827 23.866 24.584 22.9933 25.468 21.724C26.352 20.432 26.794 18.8907 26.794 17.1C26.794 15.6267 26.4653 14.312 25.808 13.156C25.1733 12 24.2893 11.1047 23.156 10.47C22.0227 9.81267 20.7533 9.484 19.348 9.484C17.9427 9.484 16.6733 9.81267 15.54 10.47C14.4067 11.1047 13.5113 12 12.854 13.156C12.2193 14.312 11.902 15.6267 11.902 17.1C11.902 18.8907 12.3327 20.4207 13.194 21.69C14.078 22.9593 15.268 23.8433 16.764 24.342V19.446H21.864V24.342Z" fill="#EFECE6"/>
<defs>
<linearGradient id="paint0_linear_4111_12" x1="38" y1="0" x2="-16.004" y2="39.141" gradientUnits="userSpaceOnUse">
<stop stop-color="#AAD9D1"/>
<stop offset="1" stop-color="#017373"/>
</linearGradient>
</defs>
</svg>
