<svg width="38" height="38" viewBox="0 0 38 38" fill="none" xmlns="http://www.w3.org/2000/svg">
<g clip-path="url(#clip0_4111_12)">
<rect width="38" height="38" rx="8" fill="url(#paint0_linear_4111_12)"/>
<path d="M21.2402 30.0996C20.3105 30.3099 19.237 30.415 18.0195 30.415C16.8021 30.415 15.5127 30.1494 14.1514 29.6182C12.8011 29.0869 11.6224 28.3398 10.6152 27.377C8.44596 25.3073 7.36133 22.6566 7.36133 19.4248C7.36133 16.1488 8.41276 13.3708 10.5156 11.0908C12.7292 8.7002 15.5514 7.50488 18.9824 7.50488C22.1035 7.50488 24.6934 8.48991 26.752 10.46C28.9323 12.5628 30.0225 15.3187 30.0225 18.7275C30.0225 21.4613 29.2477 23.8519 27.6982 25.8994C27.2113 26.5413 26.6689 27.1169 26.0713 27.626C26.4697 27.7367 26.9512 27.9193 27.5156 28.1738C28.722 28.7383 29.862 29.0316 30.9355 29.0537H31.2676C31.8431 29.0537 32.2249 28.9762 32.4131 28.8213L32.4795 28.8711L31.2178 32.042C31.0628 32.5179 30.7695 32.7559 30.3379 32.7559C29.707 32.7559 29.0651 32.623 28.4121 32.3574C27.7591 32.0918 27.1725 31.8428 26.6523 31.6104C26.1432 31.3779 25.6562 31.1732 25.1914 30.9961C24.7266 30.819 24.2839 30.6696 23.8633 30.5479C23.1439 30.3486 22.2695 30.1992 21.2402 30.0996ZM11.8105 19.2422C11.8105 20.2715 11.9876 21.2288 12.3418 22.1143C12.707 22.9886 13.2051 23.7467 13.8359 24.3887C15.1862 25.75 16.8796 26.4307 18.916 26.4307C20.8639 26.4307 22.4521 25.7721 23.6807 24.4551C24.9535 23.1048 25.5898 21.3174 25.5898 19.0928C25.5898 16.9899 24.9922 15.2357 23.7969 13.8301C22.502 12.3249 20.7865 11.5723 18.6504 11.5723C16.5697 11.5723 14.8874 12.3359 13.6035 13.8633C12.4082 15.3021 11.8105 17.0951 11.8105 19.2422Z" fill="#EFECE6"/>
</g>
<defs>
<linearGradient id="paint0_linear_4111_12" x1="38" y1="0" x2="-16.004" y2="39.141" gradientUnits="userSpaceOnUse">
<stop stop-color="#AAD9D1"/>
<stop offset="1" stop-color="#017373"/>
</linearGradient>
<clipPath id="clip0_4111_12">
<rect width="38" height="38" rx="8" fill="white"/>
</clipPath>
</defs>
</svg>
